#!OML:ASF F:\VICON\USERDATA\INSTALL\rory3\rory3.ASF
:FULLY-SPECIFIED
:DEGREES
2252
root -0.371509 17.8061 0.182651 6.7042 3.70684 3.93981
lowerback 7.53777 1.92613 1.69706
upperback 3.59051 2.75417 5.79157
thorax -0.714295 1.35765 4.82778
lowerneck -29.3572 4.79697 -3.19593
upperneck 8.90959 7.87236 -1.7642
head 7.28406 3.45222 0.999128
rclavicle 4.69132e-014 3.81667e-014
rhumerus 40.2835 -22.5004 -48.9753
rradius 65.3765
rwrist 19.7792
rhand -61.7487 -12.2311
rfingers 7.12502
rthumb -33.815 -39.0557
lclavicle 4.69132e-014 3.81667e-014
lhumerus -18.0729 -9.38671 79.962
lradius 53.9678
lwrist 4.0572
lhand -20.3244 34.1002
lfingers 7.12502
lthumb 6.02662 -296.006
rfemur -20.4648 1.98884 7.05504
rtibia 31.03
rfoot -13.8483 -4.01446
rtoes 0.225982
lfemur -15.172 3.53246 -19.137
ltibia 23.5419
lfoot -8.25084 10.5347
ltoes -23.5172
2253
root -0.355794 17.8106 0.186759 6.56342 4.52312 3.81855
lowerback 7.59013 2.04277 1.82844
upperback 3.56935 2.92172 5.68421
thorax -0.765517 1.44415 4.6236
lowerneck -29.65 4.41843 -3.35535
upperneck 9.08276 7.40649 -1.51015
head 7.37307 3.24274 1.0536
rclavicle -1.27222e-014 1.59028e-014
rhumerus 41.3031 -23.0647 -49.508
rradius 64.7103
rwrist 20.0007
rhand -61.6595 -12.7435
rfingers 7.12502
rthumb -33.7302 -39.5868
lclavicle -1.27222e-014 1.59028e-014
lhumerus -18.4597 -8.70169 79.5108
lradius 54.0778
lwrist 4.31231
lhand -20.3355 34.1437
lfingers 7.12502
lthumb 6.01587 -295.962
rfemur -19.9094 1.62214 7.19916
rtibia 30.8229
rfoot -14.0232 -4.38864
rtoes -0.339053
lfemur -15.1597 3.18235 -19.0102
ltibia 23.6638
lfoot -8.48073 10.1689
ltoes -22.0549
2254
root -0.341029 17.8117 0.189692 6.50522 5.27655 3.74222
lowerback 7.5917 2.15691 1.83565
upperback 3.50328 3.0783 5.61324
thorax -0.841452 1.52417 4.52956
lowerneck -29.6806 4.09242 -3.45082
upperneck 9.08692 7.00289 -1.44956
head 7.37843 3.05307 1.03316
rclavicle 1.11319e-014 9.54166e-015
rhumerus 42.1069 -23.3788 -49.6633
rradius 63.9303
rwrist 19.8777
rhand -62.0588 -13.5551
rfingers 7.12502
rthumb -34.1096 -40.3145
lclavicle 1.11319e-014 9.54166e-015
lhumerus -19.027 -7.9777 79.1167
lradius 54.3383
lwrist 4.40289
lhand -20.3795 34.0426
lfingers 7.12502
lthumb 5.9734 -296.062
rfemur -19.5058 1.22624 7.28889
rtibia 30.6518
rfoot -14.1474 -4.67228
rtoes -0.435811
lfemur -15.2437 2.79469 -18.9369
ltibia 23.7668
lfoot -8.51229 9.81982
ltoes -22.2369
2255
root -0.326805 17.8115 0.189586 6.46388 6.04828 3.53501
lowerback 7.62937 2.23946 1.98291
upperback 3.40427 3.20662 5.57454
thorax -0.963258 1.59099 4.39059
lowerneck -29.7994 3.74454 -3.55814
upperneck 9.27876 6.58579 -1.38905
head 7.46113 2.84957 1.01767
rclavicle 2.38542e-014 6.36111e-015
rhumerus 42.9737 -23.6395 -49.9782
rradius 63.2175
rwrist 19.8055
rhand -62.1859 -12.9671
rfingers 7.12502
rthumb -34.2303 -39.6994
lclavicle 2.38542e-014 6.36111e-015
lhumerus -19.6645 -7.2144 78.6996
lradius 54.5993
lwrist 4.27024
lhand -20.4404 33.4582
lfingers 7.12502
lthumb 5.91466 -296.644
rfemur -19.1432 0.928638 7.51355
rtibia 30.4877
rfoot -14.3403 -5.02808
rtoes -0.469228
lfemur -15.396 2.43596 -18.7135
ltibia 23.8651
lfoot -8.37891 9.38059
ltoes -23.5989
2256
root -0.312075 17.8109 0.190563 6.41186 6.80671 3.42353
lowerback 7.63866 2.36353 1.9952
upperback 3.34785 3.37717 5.54071
thorax -1.03497 1.67755 4.33114
lowerneck -29.9422 3.34607 -3.8327
upperneck 9.4146 6.14331 -1.20586
head 7.51953 2.64295 1.06425
rclavicle 1.19271e-014 -1.59028e-014
rhumerus 43.7924 -23.965 -50.2199
rradius 62.5406
rwrist 19.7227
rhand -61.7258 -11.8181
rfingers 7.12502
rthumb -33.7932 -38.6475
lclavicle 1.19271e-014 -1.59028e-014
lhumerus -20.132 -6.36348 78.4037
lradius 54.691
lwrist 3.79842
lhand -19.8884 32.741
lfingers 7.12502
lthumb 6.44757 -297.377
rfemur -18.7561 0.678325 7.63331
rtibia 30.3445
rfoot -14.5724 -5.46565
rtoes -0.993591
lfemur -15.5157 2.11356 -18.5935
ltibia 23.9473
lfoot -8.37308 8.92975
ltoes -23.8665
2257
root -0.297449 17.8133 0.196933 6.34954 7.55309 3.31179
lowerback 7.56984 2.47513 2.02836
upperback 3.3351 3.52434 5.44269
thorax -1.01121 1.75229 4.19912
lowerneck -30.0163 3.04518 -3.84443
upperneck 9.41337 5.7471 -1.1682
head 7.53452 2.4578 1.02428
rclavicle -5.08889e-014 -5.725e-014
rhumerus 44.559 -24.2886 -50.5684
rradius 61.9088
rwrist 19.5442
rhand -61.3454 -12.3439
rfingers 7.12502
rthumb -33.4317 -39.252
lclavicle -5.08889e-014 -5.725e-014
lhumerus -20.4651 -5.70972 78.061
lradius 54.7019
lwrist 3.90111
lhand -19.8697 33.5028
lfingers 7.12502
lthumb 6.46559 -296.616
rfemur -18.3331 0.400855 7.76436
rtibia 30.1827
rfoot -14.7833 -5.84432
rtoes -1.3538
lfemur -15.6177 1.87665 -18.4908
ltibia 24.0622
lfoot -8.46045 8.46226
ltoes -23.6108
2258
root -0.282759 17.8141 0.203041 6.26538 8.29196 3.17874
lowerback 7.50764 2.58859 2.02521
upperback 3.34117 3.67155 5.37867
thorax -0.975381 1.82668 4.12383
lowerneck -29.9777 2.72309 -3.80843
upperneck 9.28248 5.31724 -1.25719
head 7.49503 2.24942 0.92553
rclavicle -2.38542e-014 -1.59028e-014
rhumerus 45.3099 -24.5534 -50.8312
rradius 61.2697
rwrist 19.2969
rhand -61.6826 -13.9004
rfingers 7.12502
rthumb -33.7522 -40.7388
lclavicle -2.38542e-014 -1.59028e-014
lhumerus -20.8103 -5.12299 77.7388
lradius 54.7939
lwrist 4.03017
lhand -21.5886 35.3749
lfingers 7.12502
lthumb 4.806 -294.7
rfemur -17.9066 0.115877 7.91832
rtibia 30.0393
rfoot -15.0651 -6.17208
rtoes -0.737582
lfemur -15.6968 1.65562 -18.3634
ltibia 24.1735
lfoot -8.51167 8.0133
ltoes -23.4831
2259
root -0.267622 17.8123 0.206532 6.18951 9.02836 3.04597
lowerback 7.42732 2.70982 2.06017
upperback 3.38434 3.82824 5.30212
thorax -0.887945 1.9059 4.01566
lowerneck -29.7832 2.38249 -3.74272
upperneck 8.78895 4.85792 -1.49416
head 7.31432 2.024 0.761692
rclavicle 4.69132e-014 -6.36111e-015
rhumerus 46.0316 -24.8957 -51.0988
rradius 60.8001
rwrist 19.4021
rhand -61.2886 -15.0311
rfingers 7.12502
rthumb -33.3777 -41.9509
lclavicle 4.69132e-014 -6.36111e-015
lhumerus -21.1491 -4.4067 77.3596
lradius 55.0984
lwrist 3.51295
lhand -23.4685 35.4327
lfingers 7.12502
lthumb 2.99062 -294.609
rfemur -17.5046 -0.189804 8.06146
rtibia 29.8817
rfoot -15.3169 -6.46893
rtoes -0.256579
lfemur -15.7968 1.35986 -18.2395
ltibia 24.3009
lfoot -8.54328 7.67867
ltoes -23.8594
2260
root -0.253306 17.8096 0.21116 6.18168 9.77009 3.04498
lowerback 7.36681 2.83101 1.94455
upperback 3.31254 3.98141 5.1688
thorax -0.936002 1.98295 3.92876
lowerneck -29.6891 2.02296 -3.80254
upperneck 8.61117 4.3824 -1.41423
head 7.24275 1.80981 0.728607
rclavicle 1.74931e-014 -3.33958e-014
rhumerus 46.504 -25.055 -51.1665
rradius 60.3541
rwrist 19.3611
rhand -60.3926 -15.6869
rfingers 7.12502
rthumb -32.5255 -42.7861
lclavicle 1.74931e-014 -3.33958e-014
lhumerus -21.7103 -3.93187 76.9874
lradius 55.5449
lwrist 3.36512
lhand -23.8522 33.6639
lfingers 7.12502
lthumb 2.62012 -296.372
rfemur -17.1363 -0.508556 8.05202
rtibia 29.7268
rfoot -15.5683 -6.75745
rtoes 0.173889
lfemur -15.9368 1.03292 -18.2544
ltibia 24.4444
lfoot -8.64305 7.30874
ltoes -23.8261
2261
root -0.239479 17.8097 0.218511 6.14593 10.53 2.96778
lowerback 7.40481 2.91698 1.86186
upperback 3.16821 4.09859 5.04118
thorax -1.10956 2.04242 3.82505
lowerneck -29.8015 1.66636 -3.85257
upperneck 8.81121 3.91461 -1.25184
head 7.32807 1.59601 0.729429
rclavicle 1.11319e-014 -3.97569e-014
rhumerus 46.8961 -25.0117 -51.254
rradius 59.8089
rwrist 18.8956
rhand -60.6861 -15.3732
rfingers 7.12502
rthumb -32.8048 -42.4144
lclavicle 1.11319e-014 -3.97569e-014
lhumerus -22.2635 -3.4438 76.6419
lradius 55.6715
lwrist 3.60998
lhand -22.8438 33.3135
lfingers 7.12502
lthumb 3.59393 -296.737
rfemur -16.7413 -0.77204 8.14319
rtibia 29.5751
rfoot -15.8244 -7.16336
rtoes -0.34951
lfemur -16.1046 0.733821 -18.1798
ltibia 24.6472
lfoot -8.75657 6.93772
ltoes -23.6368
2262
root -0.226895 17.8095 0.228068 5.98571 11.2814 2.7521
lowerback 7.48763 3.01176 1.88533
upperback 3.09667 4.23409 4.98527
thorax -1.23097 2.11108 3.73487
lowerneck -29.8569 1.29087 -3.91502
upperneck 8.90439 3.42229 -1.10144
head 7.37023 1.37263 0.722511
rclavicle 1.07344e-014 3.33958e-014
rhumerus 47.1267 -25.0621 -51.3626
rradius 59.4757
rwrist 18.6975
rhand -61.4052 -15.271
rfingers 7.12502
rthumb -33.4886 -42.1668
lclavicle 1.07344e-014 3.33958e-014
lhumerus -22.6791 -2.6901 76.3641
lradius 55.6135
lwrist 3.40928
lhand -23.707 33.6763
lfingers 7.12502
lthumb 2.76034 -296.362
rfemur -16.2731 -0.994153 8.39333
rtibia 29.4379
rfoot -16.0802 -7.57227
rtoes -0.45592
lfemur -16.1761 0.488275 -17.9549
ltibia 24.8761
lfoot -8.86767 6.49451
ltoes -23.6858
2263
root -0.21869 17.8057 0.232085 5.81465 12.1485 2.45596
lowerback 7.59544 3.08518 1.99137
upperback 3.0212 4.34902 4.95224
thorax -1.36442 2.16962 3.62237
lowerneck -29.7877 0.92981 -4.04498
upperneck 8.95333 2.96561 -0.941557
head 7.37876 1.16684 0.732772
rclavicle 4.21423e-014 -4.13472e-014
rhumerus 47.071 -25.1603 -51.3323
rradius 59.3551
rwrist 18.7807
rhand -61.4282 -15.5613
rfingers 7.12502
rthumb -33.5104 -42.4524
lclavicle 4.21423e-014 -4.13472e-014
lhumerus -23.0865 -1.98326 76.0856
lradius 55.6543
lwrist 3.12974
lhand -22.7614 32.1157
lfingers 7.12502
lthumb 3.67354 -297.936
rfemur -15.8112 -1.32845 8.74557
rtibia 29.3188
rfoot -16.38 -7.90021
rtoes -0.191537
lfemur -16.3168 0.201471 -17.6176
ltibia 25.0906
lfoot -8.94743 5.96989
ltoes -23.7279
2264
root -0.211347 17.802 0.228232 5.78492 13.2045 2.31672
lowerback 7.64745 3.10694 1.96459
upperback 2.93666 4.3831 4.88154
thorax -1.47897 2.18737 3.55477
lowerneck -30.0099 0.536585 -4.3778
upperneck 9.16293 2.53354 -0.608711
head 7.47958 0.978589 0.83979
rclavicle -7.23576e-014 -4.77083e-015
rhumerus 47.3165 -25.2663 -51.4597
rradius 59.0911
rwrist 19.0323
rhand -61.3014 -15.9177
rfingers 7.12502
rthumb -33.3898 -42.8348
lclavicle -7.23576e-014 -4.77083e-015
lhumerus -23.3991 -1.41852 75.8298
lradius 55.7304
lwrist 3.0098
lhand -22.5707 32.5905
lfingers 7.12502
lthumb 3.85772 -297.465
rfemur -15.4065 -1.87761 8.93551
rtibia 29.1816
rfoot -16.6646 -8.21315
rtoes -0.0554886
lfemur -16.6491 -0.184195 -17.4565
ltibia 25.3432
lfoot -8.96596 5.34998
ltoes -23.3785
2265
root -0.193689 17.8018 0.237969 5.87367 13.912 2.3743
lowerback 7.41569 3.19399 1.72845
upperback 2.93219 4.46902 4.72767
thorax -1.36536 2.23036 3.53163
lowerneck -30.3389 0.217904 -4.59409
upperneck 9.3145 2.17199 -0.340674
head 7.57948 0.823256 0.9163
rclavicle -2.78299e-014 -3.33958e-014
rhumerus 47.914 -25.27 -51.916
rradius 58.698
rwrist 19.5737
rhand -61.0351 -15.8862
rfingers 7.12502
rthumb -33.1367 -42.8574
lclavicle -2.78299e-014 -3.33958e-014
lhumerus -23.8219 -0.863478 75.4914
lradius 55.9704
lwrist 2.98574
lhand -22.5708 32.4393
lfingers 7.12502
lthumb 3.8576 -297.616
rfemur -15.1409 -2.29994 8.87598
rtibia 29.0297
rfoot -16.6734 -8.5987
rtoes -1.36012
lfemur -16.9311 -0.509512 -17.5566
ltibia 25.6142
lfoot -9.12846 5.04349
ltoes -23.1174
